<svg xmlns="http://www.w3.org/2000/svg" viewBox="0 0 120 150" role="img" aria-label="Szlakiem Smaku">
  <!-- pinezka -->
  <path d="M60 142C40 110 12 86 12 52A48 48 0 1 1 108 52C108 86 80 110 60 142Z" fill="#8b2f2f"/>
  <!-- talerz -->
  <circle cx="60" cy="50" r="34" fill="#f7efe3"/>
  <g fill="#e5b45b">
    <!-- widelec: zęby -->
    <rect x="44.6" y="24" width="2.4" height="13" rx="1.2"/>
    <rect x="48.4" y="24" width="2.4" height="13" rx="1.2"/>
    <rect x="52.2" y="24" width="2.4" height="13" rx="1.2"/>
    <rect x="56.0" y="24" width="2.4" height="13" rx="1.2"/>
    <!-- widelec: główka łącząca -->
    <rect x="44.6" y="35.5" width="13.8" height="3.6" rx="1.8"/>
    <!-- widelec: trzonek -->
    <rect x="49.6" y="38" width="3.8" height="56" rx="1.9"/>
    <!-- łyżka: czerpak -->
    <ellipse cx="70" cy="33" rx="8.6" ry="11"/>
    <!-- łyżka: trzonek -->
    <rect x="68.1" y="40" width="3.8" height="54" rx="1.9"/>
  </g>
</svg>
